<?xml version="1.0" encoding="UTF-8" standalone="no"?>
<svg width="21px" height="24px" viewBox="0 0 21 24" version="1.1" xmlns="http://www.w3.org/2000/svg" xmlns:xlink="http://www.w3.org/1999/xlink" xmlns:sketch="http://www.bohemiancoding.com/sketch/ns">
    <!-- Generator: Sketch 3.3.2 (12043) - http://www.bohemiancoding.com/sketch -->
    <title>Untitled</title>
    <desc>Created with Sketch.</desc>
    <defs></defs>
    <g id="Page-1" stroke="none" stroke-width="1" fill="none" fill-rule="evenodd" sketch:type="MSPage">
        <path d="M19.7925926,18.7032866 C19.4296296,19.5417798 19,20.3136083 18.5022222,21.0232165 C17.8237037,21.9905946 17.2681481,22.660204 16.84,23.0320446 C16.1762963,23.6423966 15.4651852,23.9549797 14.7037037,23.9727569 C14.157037,23.9727569 13.4977778,23.8172061 12.7303704,23.5016601 C11.9604444,23.1875955 11.2528889,23.0320446 10.6059259,23.0320446 C9.92740741,23.0320446 9.1997037,23.1875955 8.42133333,23.5016601 C7.64177778,23.8172061 7.01377778,23.9816456 6.53362963,23.9979414 C5.80340741,24.0290515 5.07555556,23.7075798 4.34903704,23.0320446 C3.88533333,22.6276124 3.30533333,21.9343 2.61051852,20.9521075 C1.86503704,19.9032503 1.25214815,18.6869908 0.772,17.300366 C0.257777778,15.8026335 0,14.352307 0,12.9482013 C0,11.3398054 0.347555556,9.95258809 1.0437037,8.7901047 C1.59081481,7.85635515 2.31866667,7.11978482 3.22962963,6.57906042 C4.14059259,6.03833602 5.12488889,5.76278879 6.18488889,5.74515969 C6.76488889,5.74515969 7.52548148,5.92456168 8.47066667,6.27714362 C9.41318519,6.6309107 10.0183704,6.81031269 10.2837037,6.81031269 C10.4820741,6.81031269 11.1543704,6.60054125 12.2940741,6.18233167 C13.3718519,5.79449154 14.2814815,5.6339038 15.0266667,5.69716115 C17.0459259,5.86011918 18.562963,6.65609513 19.5718519,8.09012586 C17.7659259,9.18431501 16.8725926,10.7168613 16.8903704,12.6828759 C16.9066667,14.2142371 17.4622222,15.4885689 18.5540741,16.5003902 C19.0488889,16.9700056 19.6014815,17.3329576 20.2162963,17.5907276 C20.082963,17.9773826 19.9422222,18.3477418 19.7925926,18.7032866 L19.7925926,18.7032866 Z M15.1614815,0.480133637 C15.1614815,1.68040847 14.722963,2.80110053 13.8488889,3.83840251 C12.7940741,5.07155042 11.5182222,5.78412148 10.1346667,5.67168043 C10.117037,5.52768479 10.1068148,5.37613381 10.1068148,5.21687936 C10.1068148,4.06461789 10.6084444,2.83146998 11.4992593,1.82320416 C11.944,1.31270107 12.5096296,0.888225007 13.1955556,0.549613018 C13.88,0.216052729 14.5274074,0.0315842306 15.1362963,4.4408921e-16 C15.1540741,0.16045441 15.1614815,0.320923634 15.1614815,0.480118822 L15.1614815,0.480133637 Z" id="Shape" fill="#000000" sketch:type="MSShapeGroup"></path>
    </g>
</svg>