<?xml version="1.0" encoding="UTF-8" standalone="no"?>
<svg width="24px" height="11px" viewBox="0 0 24 11" version="1.1" xmlns="http://www.w3.org/2000/svg" xmlns:xlink="http://www.w3.org/1999/xlink" xmlns:sketch="http://www.bohemiancoding.com/sketch/ns">
    <!-- Generator: Sketch 3.3.2 (12043) - http://www.bohemiancoding.com/sketch -->
    <title>Shape</title>
    <desc>Created with Sketch.</desc>
    <defs></defs>
    <g>
        <path d="M1.0005,10.2855 C0.393,9.738 0,8.931 0,8.0175 C0,7.1055 0.393,6.2985 1.0005,5.7495 L1.0005,10.2855 L1.0005,10.2855 Z M3,10.9995 C2.6355,10.9995 2.4465,11.004 1.9995,10.8615 L1.9995,5.1735 C2.4735,5.022 2.697,5.028 3,5.052 L3,10.9995 L3,10.9995 Z M4.9995,10.9995 L4.0005,10.9995 L4.0005,5.3325 L4.3095,5.514 C4.446,4.9515 4.689,4.437 5.001,3.9795 L5.001,10.9995 L4.9995,10.9995 Z M7.0005,10.9995 L6,10.9995 L6,2.9325 C6.309,2.7015 6.639,2.5035 7.0005,2.367 L7.0005,10.9995 L7.0005,10.9995 Z M9,10.9995 L7.9995,10.9995 L7.9995,2.142 C8.376,2.1015 8.4915,2.073 9,2.151 L9,10.9995 L9,10.9995 Z M10.9995,10.9995 L9.999,10.9995 L9.999,2.4495 L10.3785,2.634 C10.557,2.3235 10.77,2.0415 10.9995,1.776 L10.9995,10.9995 L10.9995,10.9995 Z M12,10.9995 L12,0.8775 C12.798,0.3285 13.74,0 14.7615,0 C17.475,0 19.674,2.241 19.878,5.079 C21.831,4.122 24,5.6595 24,7.893 C24,9.6075 22.6965,10.9995 21.09,10.9995 L12,10.9995 Z"></path>
    </g>
</svg>