<?xml version="1.0" encoding="UTF-8" standalone="no"?>
<svg width="25px" height="21px" viewBox="0 0 25 21" version="1.1" xmlns="http://www.w3.org/2000/svg" xmlns:xlink="http://www.w3.org/1999/xlink" xmlns:sketch="http://www.bohemiancoding.com/sketch/ns">
    <!-- Generator: Sketch 3.3.2 (12043) - http://www.bohemiancoding.com/sketch -->
    <title>Shape</title>
    <desc>Created with Sketch.</desc>
    <defs></defs>
    <g>
        <path d="M23.424551,8.57045562 C20.9825489,13.7874601 15.0875438,20.8899662 11.3615406,20.8899662 C7.68953747,20.8899662 7.15853701,13.0584595 5.15303528,7.84595499 C4.16603443,5.28245278 3.52853388,5.87045329 1.67903228,7.16495441 L0.551031311,5.70995315 C3.24803364,3.33845111 5.94953597,0.582948732 7.6085374,0.4299486 C9.47603901,0.249948445 10.62654,1.52644955 11.0570404,4.2609519 C11.6255409,7.854955 12.4190415,13.4319598 13.8050427,13.4319598 C14.8850437,13.4319598 17.546046,9.006956 17.6825461,7.42595463 C17.9255463,5.10995264 15.9800446,5.03945257 14.2910432,5.7624532 C16.9625455,-2.99155435 28.082055,-1.37905296 23.424551,8.57045562 L23.424551,8.57045562 Z"></path>
    </g>
</svg>