<?xml version="1.0" standalone="no"?>
<!DOCTYPE svg PUBLIC "-//W3C//DTD SVG 20010904//EN"
 "http://www.w3.org/TR/2001/REC-SVG-20010904/DTD/svg10.dtd">
<svg version="1.0" xmlns="http://www.w3.org/2000/svg"
 width="700.000000pt" height="700.000000pt" viewBox="0 0 700.000000 700.000000"
 preserveAspectRatio="xMidYMid meet">
<metadata>
Created by potrace 1.11, written by Peter Selinger 2001-2013
</metadata>
<g transform="translate(0.000000,700.000000) scale(0.100000,-0.100000)"
fill="#000000" stroke="none">
<path d="M3377 6414 c-1 -1 -45 -4 -97 -8 -466 -30 -963 -197 -1360 -457 -103
-67 -227 -156 -250 -179 -3 -3 -36 -32 -75 -65 -236 -201 -446 -453 -608 -728
-58 -98 -129 -238 -162 -317 -14 -36 -32 -78 -40 -95 -41 -91 -130 -398 -151
-525 -4 -25 -8 -47 -9 -50 -1 -3 -5 -32 -9 -65 -5 -33 -10 -69 -12 -80 -8 -40
-18 -233 -18 -350 0 -214 12 -335 51 -545 215 -1145 1125 -2070 2268 -2304
109 -22 152 -30 240 -41 181 -24 596 -24 710 0 11 2 39 7 63 9 400 49 848 224
1232 482 159 107 401 322 540 479 342 387 592 903 679 1405 35 199 44 308 44
515 0 216 -5 275 -39 495 -68 427 -256 870 -526 1238 -270 367 -638 677 -1043
879 -187 94 -450 190 -625 229 -19 4 -39 9 -45 10 -63 18 -281 51 -390 60 -75
6 -363 13 -368 8z m1289 -1453 c0 -285 0 -289 -20 -293 -12 -2 -209 -3 -438
-2 l-418 0 -1 -1055 c0 -581 -2 -1069 -4 -1086 -24 -198 -116 -384 -258 -524
-105 -103 -223 -172 -374 -217 -73 -22 -109 -27 -213 -28 -148 -1 -194 5 -298
39 -222 75 -419 247 -512 449 -29 62 -60 146 -55 146 2 0 1 10 -4 23 -16 41
-23 99 -26 197 -7 280 126 551 355 720 96 71 240 133 365 158 17 3 89 6 160 5
109 -1 144 -5 218 -27 48 -14 115 -40 147 -56 33 -17 61 -30 62 -30 2 0 3 421
3 935 l-1 935 656 0 656 0 0 -289z"/>
</g>
</svg>
