<svg xmlns="http://www.w3.org/2000/svg" version="1.1" x="0" y="0" width="1048.7" height="581.7" viewBox="0 209 1048.7 581.7" xml:space="preserve"><path d="M0 686.2c0 13 4.7 22.9 14.2 29.5 9.4 6.7 19.5 9 30.3 7.1 10.1-2 17.2-5.5 21.2-10.7 4.1-5.2 6.1-13.8 6.1-25.9v-141.5c0-10.1-3.5-18.6-10.5-25.6 -7-7-15.5-10.5-25.6-10.5 -9.8 0-18.1 3.5-25.1 10.5C3.5 526.1 0 534.6 0 544.7V686.2L0 686.2zM112.2 746.7c0 9.4 3.3 16.5 10 21.2 6.7 4.7 15.2 7.1 25.6 7.1 10.7 0 19.4-2.4 26.1-7.1 6.7-4.7 10-11.8 10-21.2V416.8c0-9.8-3.5-18.1-10.5-25.1 -7-7-15.5-10.5-25.6-10.5 -9.8 0-18.1 3.5-25.1 10.5 -7 7-10.5 15.4-10.5 25.1V746.7zM224 762.3c0 9.4 3.4 16.5 10.2 21.2 6.8 4.7 15.6 7.1 26.4 7.1 10.4 0 19-2.4 25.6-7.1 6.7-4.7 10-11.8 10-21.2V461.2c0-10.1-3.5-18.7-10.5-25.9 -7-7.2-15.4-10.7-25.1-10.7 -10.1 0-18.7 3.6-25.9 10.7s-10.7 15.8-10.7 25.9V762.3zM336.2 763.8c0 17.9 12 26.8 36.1 26.8 24.1 0 36.1-8.9 36.1-26.8v-488c0-27.3-8.3-42.8-24.9-46.4 -10.7-2.6-21.3 0.5-31.7 9.3 -10.4 8.8-15.6 21.1-15.6 37.1V763.8zM450.4 778V247c0-16.9 5-27 15.1-30.3 21.8-5.2 43.4-7.8 64.9-7.8 49.8 0 96.1 11.7 139.1 35.1 42.9 23.4 77.7 55.4 104.2 95.9 26.5 40.5 41.9 85.2 46.1 134 19.8-8.5 41-12.7 63.4-12.7 45.5 0 84.5 16.1 116.9 48.3 32.4 32.2 48.6 70.9 48.6 116.1 0 45.5-16.2 84.4-48.6 116.6 -32.4 32.2-71.2 48.3-116.4 48.3l-424.6-0.5c-2.9-1-5.1-2.8-6.6-5.4S450.4 779.9 450.4 778L450.4 778z"/></svg>