<svg xmlns:svg="http://www.w3.org/2000/svg" xmlns="http://www.w3.org/2000/svg" viewBox="0 0 1361.9 957.9" height="957.9" width="1361.9" xml:space="preserve" version="1.1">
	<style>
		.s0 {
			fill: #e3e2e0;
		}
	</style>
	<g transform="matrix(1.3333333,0,0,-1.3333333,0,957.89333)">
		<g transform="scale(0.1)"><path d="m4052.3 2267.2 2760 1430-2760 1440v-2870" fill="#fff"/><path d="m6472.7 3520.9-0.3 0.2 339.8 176.1-339.6-176.2M6472.4 3521.1l-2420.2 1616.1 2760-1440-339.8-176.1" fill="#e3e2e0"/><path
			d="m4052.7 2267.2-0.5 2870 2760-1440zm6059.8 3367.2c0 0-99.8 703.9-406.1 1013.9-388.4 406.8-823.8 408.9-1023.5 432.7-1429.4 103.3-3573.5 103.3-3573.5 103.3h-4.4c0 0-2144.1 0-3573.5-103.3C1331.9 7057.1 896.6 7055.1 508.1 6648.2 201.8 6338.3 102.2 5634.4 102.2 5634.4 102.2 5634.4 0 4807.8 0 3981.2v-774.9c0-826.6 102.2-1653.2 102.2-1653.2 0 0 99.7-703.9 405.9-1013.9C896.6 132.4 1407 145.3 1634.4 102.6 2451.5 24.3 5107.3 0 5107.3 0c0 0 2146.3 3.2 3575.7 106.6 199.7 23.8 635 25.8 1023.5 432.7 306.3 310 406.1 1013.9 406.1 1013.9 0 0 102 826.6 102 1653.2v774.9c0 826.6-102 1653.2-102 1653.2"
			fill="#252423"/></g>
	</g>
</svg>